<?xml version="1.0" encoding="UTF-8" standalone="no"?>
<svg
   viewBox="0 0 433 96.193502"
   width="1855.0518"
   height="412.99536"
   version="1.1"
   id="svg10"
   sodipodi:docname="bosch.svg"
   inkscape:version="1.2.2 (b0a8486541, 2022-12-01)"
   xmlns:inkscape="http://www.inkscape.org/namespaces/inkscape"
   xmlns:sodipodi="http://sodipodi.sourceforge.net/DTD/sodipodi-0.dtd"
   xmlns="http://www.w3.org/2000/svg"
   xmlns:svg="http://www.w3.org/2000/svg">
  <defs
     id="defs14" />
  <sodipodi:namedview
     id="namedview12"
     pagecolor="#ffffff"
     bordercolor="#666666"
     borderopacity="1.0"
     inkscape:showpageshadow="2"
     inkscape:pageopacity="0.0"
     inkscape:pagecheckerboard="0"
     inkscape:deskcolor="#d1d1d1"
     showgrid="false"
     inkscape:zoom="0.27541667"
     inkscape:cx="1448.7141"
     inkscape:cy="85.325265"
     inkscape:window-width="1920"
     inkscape:window-height="1080"
     inkscape:window-x="0"
     inkscape:window-y="360"
     inkscape:window-maximized="1"
     inkscape:current-layer="svg10" />
  <path
     fill="none"
     d="M -63.6,-63.839486 H 496.6 V 159.76051 H -63.6 Z"
     id="path2" />
  <path
     fill="#ffffff"
     fill-rule="evenodd"
     d="m 185.2,46.460514 a 13.766,13.766 0 0 0 8.8,-13 c 0,-11.7 -8.3,-17.5 -19.7,-17.5 h -29.9 v 63.6 h 32.5 c 10,0 19.8,-7 19.8,-17.7 0,-12.7 -11.5,-15.3 -11.5,-15.4 z m -25.2,-17.3 h 11.6 a 5.669,5.669 0 0 1 6,6 5.927,5.927 0 0 1 -6.3,5.8 H 160 Z m 11.7,37.1 H 160 v -12.5 h 11.4 c 5.7,0 8.4,2.5 8.4,6.2 0,4.6 -3.4,6.3 -8.1,6.3 z m 59.4,-51.9 c -18.4,0 -29.2,14.7 -29.2,33.3 0,18.7 10.8,33.3 29.2,33.3 18.5,0 29.2,-14.6 29.2,-33.3 0,-18.6 -10.7,-33.3 -29.2,-33.3 z m 0,51.4 c -9,0 -13.5,-8.1 -13.5,-18.1 0,-10 4.5,-18 13.5,-18 9,0 13.6,8.1 13.6,18 0,10.1 -4.6,18.1 -13.6,18.1 z m 63.1,-24.8 -2.2,-0.5 c -5.4,-1.1 -9.7,-2.5 -9.7,-6.4 0,-4.2 4.1,-5.9 7.7,-5.9 a 17.894,17.894 0 0 1 13,5.9 l 9.9,-9.8 c -4.5,-5.1 -11.8,-10 -23.2,-10 -13.4,0 -23.6,7.5 -23.6,20 0,11.4 8.2,17 18.2,19.1 l 2.2,0.5 c 8.3,1.7 11.4,3 11.4,7 0,3.8 -3.4,6.3 -8.6,6.3 -6.2,0 -11.8,-2.7 -16.1,-8.2 l -10.1,10 c 5.6,6.7 12.7,11.9 26.4,11.9 11.9,0 24.6,-6.8 24.6,-20.7 0.2,-14.5 -10.8,-17.3 -19.9,-19.2 z m 55.5,24.8 c -7,0 -14.3,-5.8 -14.3,-18.5 0,-11.3 6.8,-17.6 13.9,-17.6 5.6,0 8.9,2.6 11.5,7.1 l 12.8,-8.5 c -6.4,-9.7 -14,-13.8 -24.5,-13.8 -19.2,0 -29.6,14.9 -29.6,32.9 0,18.9 11.5,33.7 29.4,33.7 12.6,0 18.6,-4.4 25.1,-13.8 l -12.9,-8.7 c -2.6,4.2 -5.4,7.2 -11.4,7.2 z m 66.6,-49.8 v 23.4 H 397 v -23.4 h -16.7 v 63.6 H 397 v -25.1 h 19.3 v 25.1 H 433 v -63.6 z"
     id="path4" />
  <path
     fill="#ffffff"
     d="M 48.2,-0.23948639 A 48.2,48.2 0 1 0 96.4,47.960514 48.226,48.226 0 0 0 48.2,-0.23948639 Z m 0,91.90000039 a 43.7,43.7 0 1 1 43.7,-43.7 43.745,43.745 0 0 1 -43.7,43.7 z"
     id="path6" />
  <path
     fill="#ffffff"
     d="m 68.1,17.860514 h -3.3 v 16.5 H 31.7 v -16.5 h -3.4 a 36.063,36.063 0 0 0 0,60.2 h 3.4 v -16.5 h 33.1 v 16.5 h 3.3 a 36.063,36.063 0 0 0 0,-60.2 z m -41,53.7 a 31.572,31.572 0 0 1 0,-47.2 z m 37.7,-14.6 H 31.7 v -18.1 h 33.1 z m 4.5,14.5 v -47.1 a 31.66,31.66 0 0 1 0,47.1 z"
     id="path8" />
</svg>
