<?xml version="1.0" encoding="UTF-8" standalone="no"?>
<svg
   xml:space="preserve"
   viewBox="0 0 113.4 113.40001"
   version="1.1"
   id="svg8"
   sodipodi:docname="fhstp.svg"
   width="113.4"
   height="113.4"
   inkscape:version="1.2.2 (b0a8486541, 2022-12-01)"
   xmlns:inkscape="http://www.inkscape.org/namespaces/inkscape"
   xmlns:sodipodi="http://sodipodi.sourceforge.net/DTD/sodipodi-0.dtd"
   xmlns="http://www.w3.org/2000/svg"
   xmlns:svg="http://www.w3.org/2000/svg"><defs
     id="defs12" /><sodipodi:namedview
     id="namedview10"
     pagecolor="#ffffff"
     bordercolor="#666666"
     borderopacity="1.0"
     inkscape:showpageshadow="2"
     inkscape:pageopacity="0.0"
     inkscape:pagecheckerboard="0"
     inkscape:deskcolor="#d1d1d1"
     showgrid="false"
     inkscape:zoom="6.9606516"
     inkscape:cx="40.082454"
     inkscape:cy="73.771829"
     inkscape:window-width="3440"
     inkscape:window-height="1416"
     inkscape:window-x="1920"
     inkscape:window-y="0"
     inkscape:window-maximized="1"
     inkscape:current-layer="svg8" /><path
     fill="#005096"
     d="M 0,0 H 113.4 V 113.4 H 0 Z"
     id="path4"
     sodipodi:nodetypes="ccccc" /><path
     fill="#ffffff"
     d="m 24.2,72.1 h -2.6 v -3.5 h 2.6 c 0,-4.7 1.6,-6.2 6.2,-6.2 0.9,0 1.7,0.1 2.6,0.1 v 3.8 c -0.5,-0.1 -1,-0.1 -1.5,-0.1 -1.2,0 -2,0.2 -2,1.6 v 0.7 h 3.2 V 72 h -3.2 v 13 h -5.4 z m 12.9,-9.7 h 5.4 v 8.4 h 0.1 c 0.8,-1.7 3,-2.7 5,-2.7 5.5,0 5.9,4 5.9,6.4 V 85 h -5.4 v -8 c 0,-2.3 0.3,-4.5 -2.7,-4.5 -2,0 -2.9,1.7 -2.9,3.5 v 9 h -5.4 z m 27.2,0 h 5.2 L 64.7,85 h -5.2 z m 11.4,0 h 5.2 L 76,85 h -5.2 z m 11.3,0 h 5.2 L 87.4,85 h -5.2 z m -73.7,0 h 5.2 L 13.7,85 H 8.5 Z m 25.4,37.1 c 0,0.9 0.8,1.3 1.6,1.3 0.6,0 1.4,-0.2 1.4,-1 0,-0.6 -0.9,-0.9 -2.4,-1.2 -1.2,-0.3 -2.5,-0.7 -2.5,-2.1 0,-2 1.7,-2.5 3.4,-2.5 1.7,0 3.3,0.6 3.4,2.5 h -2 c -0.1,-0.8 -0.7,-1.1 -1.5,-1.1 -0.5,0 -1.2,0.1 -1.2,0.7 0,0.8 1.2,0.9 2.4,1.2 1.2,0.3 2.5,0.7 2.5,2.2 0,2 -1.8,2.7 -3.5,2.7 -1.8,0 -3.6,-0.7 -3.6,-2.7 z m 9.5,-5.2 h 1.6 v 1.4 h -1.6 v 3.8 c 0,0.7 0.2,0.9 0.9,0.9 0.2,0 0.4,0 0.7,-0.1 v 1.7 c -0.4,0.1 -0.8,0.1 -1.2,0.1 -1.3,0 -2.4,-0.3 -2.4,-1.8 v -4.6 h -1.3 v -1.4 h 1.3 V 92 h 2.1 z m 3.3,5.4 h 2.4 v 2.3 h -2.4 z m 5.8,-5.4 h 2 v 1 c 0.5,-0.8 1.3,-1.2 2.3,-1.2 2.4,0 3.5,2 3.5,4.2 0,2.1 -1.1,4 -3.4,4 -0.9,0 -1.8,-0.4 -2.3,-1.2 v 3.7 h -2.1 z m 5.7,3.9 c 0,-1.2 -0.5,-2.5 -1.9,-2.5 -1.4,0 -1.8,1.2 -1.8,2.5 0,1.3 0.5,2.5 1.9,2.5 1.4,-0.1 1.8,-1.3 1.8,-2.5 M 70.5,94 c 2.4,0 4,1.6 4,4.1 0,2.5 -1.6,4.1 -4,4.1 -2.4,0 -4,-1.6 -4,-4.1 0,-2.4 1.6,-4.1 4,-4.1 m -2.6,-2.7 h 2 v 1.8 h -2 z m 2.6,9.3 c 1.5,0 1.9,-1.2 1.9,-2.5 0,-1.2 -0.4,-2.5 -1.9,-2.5 -1.4,0 -1.9,1.2 -1.9,2.5 0,1.3 0.4,2.5 1.9,2.5 M 71,91.3 h 2 v 1.8 h -2 z m 5.2,0 h 2.1 V 102 h -2.1 z m 6.8,3 h 1.6 v 1.4 H 83 v 3.8 c 0,0.7 0.2,0.9 0.9,0.9 0.2,0 0.4,0 0.7,-0.1 v 1.7 c -0.4,0.1 -0.8,0.1 -1.2,0.1 -1.3,0 -2.4,-0.3 -2.4,-1.8 V 95.7 H 79.7 V 94.3 H 81 V 92 h 2 z m 4.6,4.4 c 0.1,1.3 0.7,2 1.9,2 0.9,0 1.5,-0.5 1.7,-1 H 93 c -0.6,1.8 -1.9,2.6 -3.6,2.6 -2.4,0 -4,-1.7 -4,-4.1 0,-2.3 1.6,-4.1 4,-4.1 2.6,0 3.9,2.2 3.8,4.6 z M 91,97.3 c -0.2,-1.1 -0.7,-1.6 -1.7,-1.6 -1.3,0 -1.7,1.1 -1.8,1.6 z m 3.7,-3 h 2 v 1.1 c 0.5,-0.9 1.5,-1.3 2.4,-1.3 2.3,0 2.8,1.3 2.8,3.2 v 4.8 h -2.1 v -4.4 c 0,-1.3 -0.4,-1.9 -1.4,-1.9 -1.2,0 -1.7,0.6 -1.7,2.2 v 4.1 h -2.1 z"
     id="path6" /></svg>
